<svg width="40" height="40" viewBox="0 0 40 40" fill="none" xmlns="http://www.w3.org/2000/svg">
<path d="M33.35 25.6333C31.3 25.6333 29.3167 25.3 27.4667 24.7C26.8833 24.5 26.2333 24.65 25.7833 25.1L23.1667 28.3833C18.45 26.1333 14.0333 21.8833 11.6833 17L14.9333 14.2333C15.3833 13.7667 15.5167 13.1167 15.3333 12.5333C14.7167 10.6833 14.4 8.7 14.4 6.65C14.4 5.75 13.65 5 12.75 5H6.98333C6.08333 5 5 5.4 5 6.65C5 22.1333 17.8833 35 33.35 35C34.5333 35 35 33.95 35 33.0333V27.2833C35 26.3833 34.25 25.6333 33.35 25.6333Z" fill="#494949"/>
</svg>
