<svg width="40" height="40" viewBox="0 0 40 40" fill="none" xmlns="http://www.w3.org/2000/svg">
<path d="M15 5L11.95 8.33333H6.66666C4.83333 8.33333 3.33333 9.83333 3.33333 11.6667V31.6667C3.33333 33.5 4.83333 35 6.66666 35H33.3333C35.1667 35 36.6667 33.5 36.6667 31.6667V11.6667C36.6667 9.83333 35.1667 8.33333 33.3333 8.33333H28.05L25 5H15ZM20 30C15.4 30 11.6667 26.2667 11.6667 21.6667C11.6667 17.0667 15.4 13.3333 20 13.3333C24.6 13.3333 28.3333 17.0667 28.3333 21.6667C28.3333 26.2667 24.6 30 20 30Z" fill="#494949"/>
<path d="M20 28.3333L22.0833 23.75L26.6667 21.6667L22.0833 19.5833L20 15L17.9167 19.5833L13.3333 21.6667L17.9167 23.75L20 28.3333Z" fill="#494949"/>
</svg>
