<svg width="40" height="40" viewBox="0 0 40 40" fill="none" xmlns="http://www.w3.org/2000/svg">
<path d="M23.8333 18.1667L24.875 15.875L27.1667 14.8333L24.875 13.7917L23.8333 11.5L22.7917 13.7917L20.5 14.8333L22.7917 15.875L23.8333 18.1667ZM17.5833 18.5833L15.5 14L13.4167 18.5833L8.83334 20.6667L13.4167 22.75L15.5 27.3333L17.5833 22.75L22.1667 20.6667L17.5833 18.5833ZM23.8333 23.1667L22.7917 25.4583L20.5 26.5L22.7917 27.5417L23.8333 29.8333L24.875 27.5417L27.1667 26.5L24.875 25.4583L23.8333 23.1667Z" fill="#494949"/>
<path d="M20 3.33334C10.7833 3.33334 3.33334 10.7833 3.33334 20C3.33334 29.2167 10.7833 36.6667 20 36.6667C29.2167 36.6667 36.6667 29.2167 36.6667 20C36.6667 10.7833 29.2167 3.33334 20 3.33334ZM20 33.3333C12.65 33.3333 6.66667 27.35 6.66667 20C6.66667 12.65 12.65 6.66668 20 6.66668C27.35 6.66668 33.3333 12.65 33.3333 20C33.3333 27.35 27.35 33.3333 20 33.3333Z" fill="#494949"/>
</svg>
